<?xml version="1.0" encoding="utf-8"?>
<!-- Generator: Adobe Illustrator 17.1.0, SVG Export Plug-In . SVG Version: 6.00 Build 0)  -->
<!DOCTYPE svg PUBLIC "-//W3C//DTD SVG 1.1//EN" "http://www.w3.org/Graphics/SVG/1.1/DTD/svg11.dtd">
<svg version="1.1" id="Layer_1" xmlns="http://www.w3.org/2000/svg" xmlns:xlink="http://www.w3.org/1999/xlink" x="0px" y="0px"
	 viewBox="0 0 32.5 19.7" enable-background="new 0 0 32.5 19.7" xml:space="preserve">
<g>
	<path fill-rule="evenodd" clip-rule="evenodd" fill="#099DD9" d="M2.1,0h28.4c1.1,0,2.1,0.9,2.1,1.9v15.9c0,1-0.9,1.9-2.1,1.9H2.1
		c-1.1,0-2.1-0.9-2.1-1.9V1.9C0,0.9,0.9,0,2.1,0z"/>
	<g>
		<polygon fill="#FFFFFF" points="7.9,13.5 7.2,12.1 5.4,12.1 4.8,13.5 0.9,13.5 4.9,5.6 7.7,5.6 11.8,13.5 		"/>
		<polygon fill="#FFFFFF" points="8.9,13.5 8.9,5.6 12.9,5.6 13.5,7.5 14.2,5.6 18.2,5.6 18.2,13.5 		"/>
		<polygon fill="#FFFFFF" points="16.7,13.5 16.7,5.6 24.3,5.6 24.3,8.6 24,8.6 24,10.5 24.4,10.5 24.4,13.5 		"/>
		<polygon fill="#FFFFFF" points="27.6,13.5 26.4,12 25.2,13.5 20.8,13.5 24.2,9.4 21,5.6 25.4,5.6 26.4,6.9 27.5,5.6 31.8,5.6 
			28.7,9.4 32.1,13.5 		"/>
		<path fill="#3089C0" d="M17.7,12.5V6.6h5.6v1h-4.1v1.3H23v1h-3.8v1.6h4.2v1H17.7z"/>
		<path fill="#3089C0" d="M22.9,12.5l2.6-3.1l-2.3-2.8h1.8l1.5,1.9l1.5-1.9h1.8l-2.4,2.9l2.6,3h-1.8l-1.7-2l-1.7,2H22.9z"/>
		<path fill="#099DD9" d="M10.1,12.5H8.5l-0.7-1.3h-3l-0.6,1.3H2.5l3-5.9h1.6L10.1,12.5z M7.3,10.1L6.3,8l-1,2.2H7.3z"/>
		<path fill="#099DD9" d="M9.9,12.5V6.6h2.3l1.4,4l1.4-4h2.3v5.9h-1.4V7.8l-1.5,4.6h-1.5l-1.5-4.6v4.6H9.9z"/>
	</g>
</g>
</svg>
