<?xml version="1.0" encoding="utf-8"?>
<!-- Generator: Adobe Illustrator 21.0.2, SVG Export Plug-In . SVG Version: 6.00 Build 0)  -->
<svg version="1.1" id="Layer_1" xmlns="http://www.w3.org/2000/svg" xmlns:xlink="http://www.w3.org/1999/xlink" x="0px" y="0px"
	 viewBox="0 0 39.5 19.7" style="enable-background:new 0 0 39.5 19.7;" xml:space="preserve">
<style type="text/css">
	.st0{fill-rule:evenodd;clip-rule:evenodd;}
	.st1{fill-rule:evenodd;clip-rule:evenodd;fill:#F16822;}
</style>
<g>
	<path d="M2.1,11.8c0,0,2.5,0.3,2.5-2v0c0-2.2-2.5-2-2.5-2V11.8z M0.9,6.8h2c1.2,0,2.9,1.1,2.9,3v0v0c0,1.9-1.7,3-2.9,3h-2V6.8z"/>
	<rect x="6.3" y="6.8" class="st0" width="1.2" height="6.1"/>
	<path class="st0" d="M11.3,8.2c0,0-0.4-0.5-0.9-0.5c-0.5,0-0.8,0.4-0.8,0.6c0,0.3,0,0.4,0.8,0.7c0.8,0.3,1.9,0.5,1.9,1.9
		c0,1.3-1.1,2-2,2c-1.5,0-2.2-1.1-2.2-1.1l0.8-0.8c0,0,0.5,0.8,1.3,0.8c0.8,0,0.9-0.6,0.9-0.8c0-0.3-0.2-0.6-0.7-0.8
		c-0.5-0.2-1.9-0.4-1.9-1.7c0-1.2,0.9-1.8,1.9-1.8c0.9,0,1.7,0.7,1.7,0.7L11.3,8.2z"/>
	<path class="st0" d="M17.1,8.5c-0.4-0.4-0.9-0.7-1.5-0.7c-1.1,0-2.1,0.9-2.1,2.1c0,1.1,0.9,2.1,2.1,2.1c0.6,0,1.1-0.3,1.5-0.7
		l0,1.4c-0.4,0.2-0.9,0.4-1.5,0.4c-1.8,0-3.2-1.4-3.2-3.2c0-1.8,1.4-3.2,3.2-3.2c0.5,0,1,0.1,1.5,0.4V8.5z"/>
	<polygon points="23.7,6.8 25,6.8 26.7,10.8 28.3,6.8 29.6,6.8 27,13 26.3,13 	"/>
	<path d="M35.3,7.8v1.8H36c0.5,0,0.8-0.5,0.8-0.8V8.7c0-0.4-0.3-0.8-0.8-0.8H35.3z M34.2,6.8h2c0.6,0,1.9,0.3,1.9,1.8
		c0,1.4-1.3,1.7-1.3,1.7l1.8,2.5h-1.5l-1.6-2.4h-0.1v2.4h-1.2V6.8z"/>
	<polygon points="33.3,9.2 33.3,10.3 31.2,10.3 31.2,11.8 33.4,11.8 33.4,12.9 30,12.9 30,6.8 33.4,6.8 33.4,7.9 31.2,7.9 31.2,9.2 
			"/>
	<circle class="st1" cx="20.8" cy="9.9" r="3.1"/>
</g>
</svg>
